<?xml version="1.0" standalone="no"?>
<!DOCTYPE svg PUBLIC "-//W3C//DTD SVG 20010904//EN"
 "http://www.w3.org/TR/2001/REC-SVG-20010904/DTD/svg10.dtd">
<svg version="1.0" xmlns="http://www.w3.org/2000/svg"
 width="260.000000pt" height="260.000000pt" viewBox="0 0 260.000000 260.000000"
 preserveAspectRatio="xMidYMid meet">
<metadata>
Created by potrace 1.11, written by Peter Selinger 2001-2013
</metadata>
<g transform="translate(0.000000,260.000000) scale(0.100000,-0.100000)"
fill="#000000" stroke="none">
<path d="M528 2077 l-437 -252 0 -525 0 -525 438 -252 c241 -139 444 -253 451
-253 7 0 79 38 160 85 81 47 149 85 153 85 3 0 71 -38 151 -85 l146 -84 445
257 445 257 0 515 0 515 -445 257 -445 257 -146 -84 c-80 -47 -148 -85 -151
-85 -4 0 -72 38 -153 85 -81 47 -153 85 -161 85 -8 0 -211 -114 -451 -253z
m539 56 c45 -26 83 -49 83 -52 0 -4 -101 -65 -225 -136 l-225 -130 0 -515 0
-515 225 -130 c124 -71 225 -132 225 -136 0 -3 -38 -27 -85 -53 l-86 -48 -172
99 c-95 55 -265 153 -379 219 l-208 119 0 445 0 445 377 218 c208 119 379 217
382 217 2 0 42 -21 88 -47z m911 -173 l372 -215 0 -445 0 -445 -372 -215
c-205 -118 -379 -215 -388 -215 -9 0 -183 97 -388 215 l-372 215 0 445 0 445
373 217 c204 119 379 216 388 215 8 -1 183 -99 387 -217z"/>
</g>
</svg>
